<?xml version="1.0" encoding="iso-8859-1"?>
<!-- Generator: Adobe Illustrator 21.0.0, SVG Export Plug-In . SVG Version: 6.00 Build 0)  -->
<svg version="1.1" id="Layer_1" xmlns="http://www.w3.org/2000/svg" xmlns:xlink="http://www.w3.org/1999/xlink" x="0px" y="0px"
	 viewBox="0 0 24 24" enable-background="new 0 0 24 24" xml:space="preserve">
<g>
	<path fill="#303C42" d="M23.5,21c-1.1728516,0-1.7866211,0.6396484-2.2797852,1.1542969
		C20.7666016,22.6269531,20.4082031,23,19.6621094,23s-1.1044922-0.3730469-1.5581055-0.8457031
		C17.6108398,21.6396484,16.9970703,21,15.8242188,21c-1.1713867,0-1.784668,0.6396484-2.2768555,1.1542969
		C13.0942383,22.6269531,12.7368164,23,11.9921875,23c-0.7441406,0-1.1015625-0.3730469-1.5537109-0.8457031
		C9.9458008,21.6396484,9.3330078,21,8.1616211,21c-1.1708984,0-1.7836914,0.6396484-2.2763672,1.1542969
		C5.4331055,22.6269531,5.0756836,23,4.331543,23c-0.7446289,0-1.1020508-0.3730469-1.5551758-0.8457031
		C2.2841797,21.6396484,1.6708984,21,0.5,21C0.2236328,21,0,21.2236328,0,21.5S0.2236328,22,0.5,22
		c0.7441406,0,1.1015625,0.3730469,1.5541992,0.8457031C2.546875,23.3603516,3.1601563,24,4.331543,24
		c1.1708984,0,1.7836914-0.6396484,2.2763672-1.1542969C7.0600586,22.3730469,7.4174805,22,8.1616211,22
		s1.1020508,0.3730469,1.5541992,0.8457031C10.2084961,23.3603516,10.8212891,24,11.9921875,24
		c1.1713867,0,1.784668-0.6396484,2.2768555-1.1542969C14.722168,22.3730469,15.0795898,22,15.8242188,22
		c0.7460938,0,1.1044922,0.3730469,1.5581055,0.8457031C17.8754883,23.3603516,18.4892578,24,19.6621094,24
		s1.7866211-0.6396484,2.2797852-1.1542969C22.3955078,22.3730469,22.7539063,22,23.5,22c0.2763672,0,0.5-0.2236328,0.5-0.5
		S23.7763672,21,23.5,21z"/>
	<path fill="#303C42" d="M0.5,18c0.7441406,0,1.1015625,0.3730469,1.5541992,0.8457031
		C2.546875,19.3603516,3.1601563,20,4.331543,20c1.1708984,0,1.7836914-0.6396484,2.2763672-1.1542969
		C7.0600586,18.3730469,7.4174805,18,8.1616211,18c0.1786499,0,0.293457,0.0081787,0.3917847,0.0278931
		C8.8104248,19.7061157,10.2510986,21,12,21c1.7463989,0,3.18573-1.2901001,3.4458618-2.9647827
		C15.5338745,18.0050659,15.6077271,18,15.8242188,18c0.7460938,0,1.1044922,0.3730469,1.5581055,0.8457031
		C17.8754883,19.3603516,18.4892578,20,19.6621094,20s1.7866211-0.6396484,2.2797852-1.1542969
		C22.3955078,18.3730469,22.7539063,18,23.5,18c0.2763672,0,0.5-0.2236328,0.5-0.5S23.7763672,17,23.5,17
		c-1.1728516,0-1.7866211,0.6396484-2.2797852,1.1542969C20.7666016,18.6269531,20.4082031,19,19.6621094,19
		s-1.1044922-0.3730469-1.5581055-0.8457031C17.6108398,17.6396484,16.9970703,17,15.8242188,17
		c-0.1512451,0-0.2660522,0.0058594-0.3729858,0.0178833C15.2366943,15.482605,14.0328369,14.2727661,12.5,14.0505371V12h5
		c0.2763672,0,0.5-0.2236328,0.5-0.5S17.7763672,11,17.5,11h-5V8h5C17.7763672,8,18,7.7763672,18,7.5S17.7763672,7,17.5,7h-5V4h5
		C17.7763672,4,18,3.7763672,18,3.5S17.7763672,3,17.5,3h-5V0.5C12.5,0.2236328,12.2763672,0,12,0s-0.5,0.2236328-0.5,0.5
		v13.5505371c-1.53479,0.2224731-2.739563,1.4351807-2.9518433,2.9733276C8.4263306,17.0113525,8.3063965,17,8.1616211,17
		c-1.1708984,0-1.7836914,0.6396484-2.2763672,1.1542969C5.4331055,18.6269531,5.0756836,19,4.331543,19
		c-0.7446289,0-1.1020508-0.3730469-1.5551758-0.8457031C2.2841797,17.6396484,1.6708984,17,0.5,17
		C0.2236328,17,0,17.2236328,0,17.5S0.2236328,18,0.5,18z M12,15c1.378418,0,2.5,1.1210938,2.5,2.5S13.378418,20,12,20
		s-2.5-1.1210938-2.5-2.5S10.621582,15,12,15z"/>
</g>
<g>
</g>
<g>
</g>
<g>
</g>
<g>
</g>
<g>
</g>
<g>
</g>
<g>
</g>
<g>
</g>
<g>
</g>
<g>
</g>
<g>
</g>
<g>
</g>
<g>
</g>
<g>
</g>
<g>
</g>
</svg>
