<?xml version="1.0" encoding="iso-8859-1"?>
<!-- Generator: Adobe Illustrator 19.0.0, SVG Export Plug-In . SVG Version: 6.00 Build 0)  -->
<svg version="1.1" id="Capa_1" xmlns="http://www.w3.org/2000/svg" xmlns:xlink="http://www.w3.org/1999/xlink" x="0px" y="0px"
	 viewBox="0 0 60 60" style="enable-background:new 0 0 60 60;" xml:space="preserve">
<path d="M51.65,49.887L38.266,15.564c-0.045-0.164-0.113-0.321-0.193-0.475c-0.009-0.017-0.012-0.036-0.021-0.054
	c-0.828-1.489-2.994-1.749-5.673-1.224l-18.373-2.677V9.899c2.279-0.465,4-2.484,4-4.899c0-2.757-2.243-5-5-5s-5,2.243-5,5
	c0,2.414,1.721,4.434,4,4.899V48h-2v6h-2v6h10v-6h-2v-6h-2V21.636l1.002,4.776c-0.001,0.5,0.125,0.908,0.303,1.229
	c0.085,0.153,0.188,0.29,0.301,0.417c0.012,0.014,0.021,0.032,0.033,0.046l22.014,29.538c0.423,0.723,1.279,1.533,2.993,1.533
	c1.359,0,3.258-0.51,5.906-1.978C52.547,53.88,52.348,51.217,51.65,49.887z M16.006,58h-6v-2h6V58z M12.006,54v-4h2v4H12.006z
	 M43.598,34.741l1.496,3.836c-1.531,1.574-3.783,3.237-6.292,4.628c-2.512,1.392-5.118,2.421-7.266,2.885l-2.459-3.302
	c2.333-0.505,5.074-1.58,7.785-3.082C39.571,38.205,41.933,36.452,43.598,34.741z M39.771,44.955
	c2.382-1.321,4.494-2.834,6.112-4.353l1.495,3.834c-1.499,1.395-3.484,2.805-5.67,4.017c-2.196,1.218-4.443,2.14-6.425,2.67
	l-2.449-3.288C34.982,47.267,37.386,46.276,39.771,44.955z M36.324,16.552c-0.013,0.06-0.027,0.12-0.049,0.186
	c-0.014,0.044-0.034,0.091-0.052,0.137c-0.027,0.069-0.055,0.138-0.091,0.213c-0.024,0.051-0.053,0.105-0.081,0.158
	c-0.04,0.077-0.083,0.155-0.132,0.237c-0.034,0.058-0.073,0.118-0.111,0.178c-0.054,0.084-0.111,0.17-0.173,0.258
	c-0.045,0.065-0.094,0.131-0.143,0.197c-0.066,0.089-0.137,0.18-0.211,0.273c-0.057,0.072-0.117,0.144-0.179,0.218
	c-0.079,0.094-0.162,0.19-0.249,0.287c-0.07,0.078-0.141,0.157-0.216,0.237c-0.091,0.097-0.188,0.197-0.286,0.297
	c-0.082,0.084-0.166,0.168-0.253,0.253c-0.103,0.1-0.213,0.203-0.323,0.306c-0.096,0.089-0.192,0.178-0.293,0.269
	c-0.115,0.103-0.237,0.207-0.359,0.311c-0.109,0.094-0.218,0.187-0.333,0.282c-0.128,0.105-0.265,0.212-0.401,0.319
	c-0.122,0.096-0.242,0.192-0.37,0.289c-0.143,0.109-0.296,0.219-0.447,0.328c-0.133,0.097-0.263,0.193-0.402,0.291
	c-0.162,0.114-0.336,0.228-0.506,0.343c-0.141,0.095-0.277,0.189-0.424,0.284c-0.196,0.127-0.404,0.254-0.61,0.382
	c-0.134,0.083-0.261,0.166-0.4,0.248c-0.35,0.21-0.713,0.42-1.092,0.63c-0.378,0.21-0.748,0.406-1.112,0.592
	c-0.149,0.076-0.293,0.143-0.44,0.216c-0.21,0.104-0.423,0.21-0.628,0.306c-0.172,0.08-0.337,0.152-0.505,0.227
	c-0.172,0.077-0.346,0.156-0.513,0.227c-0.177,0.075-0.348,0.142-0.521,0.212c-0.15,0.06-0.302,0.123-0.448,0.178
	c-0.175,0.067-0.344,0.126-0.513,0.187c-0.135,0.048-0.272,0.098-0.404,0.143c-0.17,0.057-0.334,0.109-0.498,0.16
	c-0.123,0.038-0.246,0.078-0.365,0.112c-0.162,0.048-0.319,0.09-0.475,0.132c-0.111,0.03-0.222,0.059-0.329,0.086
	c-0.153,0.038-0.301,0.071-0.447,0.103c-0.102,0.022-0.203,0.044-0.302,0.064c-0.14,0.028-0.276,0.052-0.409,0.075
	c-0.094,0.016-0.187,0.031-0.278,0.044c-0.126,0.018-0.249,0.034-0.368,0.048c-0.087,0.01-0.172,0.018-0.256,0.025
	c-0.11,0.01-0.218,0.017-0.321,0.023c-0.081,0.004-0.16,0.006-0.237,0.007c-0.094,0.002-0.187,0.003-0.274,0
	c-0.075-0.002-0.145-0.006-0.215-0.011c-0.077-0.005-0.153-0.01-0.223-0.019c-0.068-0.008-0.13-0.019-0.192-0.03
	c-0.06-0.011-0.121-0.021-0.174-0.034c-0.059-0.014-0.109-0.032-0.16-0.049c-0.044-0.015-0.091-0.029-0.13-0.046
	c-0.047-0.021-0.084-0.045-0.123-0.069c-0.03-0.019-0.064-0.036-0.089-0.056c-0.023-0.019-0.036-0.041-0.055-0.062l-0.012-0.017
	l-0.096-0.457c0.062-0.489,0.44-1.356,1.602-2.622c1.545-1.683,3.89-3.438,6.601-4.94c2.867-1.589,5.323-2.466,7.202-2.876
	l3.922,0.571c-0.001,0.009,0,0.017-0.001,0.026C36.343,16.473,36.332,16.514,36.324,16.552z M10.006,5c0-1.654,1.346-3,3-3
	s3,1.346,3,3s-1.346,3-3,3S10.006,6.654,10.006,5z M14.278,13.196l13.68,1.993c-1.237,0.507-2.49,1.105-3.702,1.777
	c-2.895,1.605-5.418,3.501-7.104,5.338c-0.293,0.319-0.547,0.623-0.771,0.914L14.278,13.196z M19.368,29.082
	c0.177-0.013,0.348-0.019,0.532-0.041c0.207-0.024,0.424-0.064,0.639-0.099c0.183-0.03,0.361-0.055,0.549-0.093
	c0.231-0.047,0.471-0.109,0.709-0.167c0.183-0.045,0.362-0.083,0.549-0.134c0.257-0.07,0.521-0.155,0.784-0.238
	c0.176-0.055,0.349-0.103,0.527-0.164c0.286-0.096,0.577-0.207,0.868-0.316c0.161-0.06,0.319-0.113,0.48-0.177
	c0.317-0.125,0.636-0.263,0.955-0.401c0.138-0.06,0.276-0.113,0.415-0.175c0.357-0.16,0.714-0.332,1.07-0.506
	c0.101-0.049,0.202-0.093,0.302-0.144c0.457-0.228,0.91-0.467,1.359-0.715c0.402-0.223,0.799-0.455,1.191-0.693
	c0.128-0.077,0.252-0.157,0.379-0.236c0.266-0.165,0.528-0.332,0.786-0.503c0.14-0.092,0.278-0.185,0.415-0.278
	c0.251-0.171,0.496-0.344,0.739-0.519c0.121-0.088,0.244-0.174,0.363-0.263c0.331-0.246,0.654-0.495,0.965-0.747
	c0.024-0.02,0.049-0.039,0.073-0.058c0.322-0.263,0.629-0.53,0.924-0.797c0.097-0.087,0.186-0.175,0.28-0.262
	c0.202-0.189,0.397-0.378,0.583-0.568c0.095-0.097,0.188-0.194,0.279-0.291c0.179-0.191,0.346-0.381,0.507-0.571
	c0.073-0.086,0.149-0.172,0.217-0.258c0.215-0.267,0.414-0.534,0.588-0.797c0.003-0.005,0.007-0.009,0.01-0.014l5.384,13.805
	c-1.491,1.75-4.013,3.696-6.895,5.293c-2.884,1.599-5.873,2.706-8.148,3.044l-8.85-11.883
	C19.045,29.115,19.211,29.093,19.368,29.082z M45.589,55.449c-3.873,2.146-5.77,1.967-6.219,1.16l-2.807-3.768
	c1.941-0.594,4.057-1.498,6.115-2.639c2.052-1.137,3.945-2.449,5.476-3.776l1.655,4.244l0.057,0.121
	C50.348,51.662,49.214,53.44,45.589,55.449z"/>
<g>
</g>
<g>
</g>
<g>
</g>
<g>
</g>
<g>
</g>
<g>
</g>
<g>
</g>
<g>
</g>
<g>
</g>
<g>
</g>
<g>
</g>
<g>
</g>
<g>
</g>
<g>
</g>
<g>
</g>
</svg>
